Coordinates
version=1
nRows=15
nColumns=46
inDegrees=yes

Units are S.I. units (second, meters, Newtons, ...)
Angles are in degrees.

endheader
time	pelvis_tilt	pelvis_list	pelvis_rotation	pelvis_tx	pelvis_ty	pelvis_tz	bb_angle	bb_tx	bb_ty	bb_tz	hip_flexion_r	hip_adduction_r	hip_rotation_r	knee_angle_r	knee_angle_r_beta	ankle_angle_r	subtalar_angle_r	mtp_angle_r	crank_angle_r	hip_flexion_l	hip_adduction_l	hip_rotation_l	knee_angle_l	knee_angle_l_beta	ankle_angle_l	subtalar_angle_l	mtp_angle_l	crank_angle_l	lumbar_extension	lumbar_bending	lumbar_rotation	arm_flex_r	arm_add_r	arm_rot_r	elbow_flex_r	pro_sup_r	wrist_flex_r	wrist_dev_r	arm_flex_l	arm_add_l	arm_rot_l	elbow_flex_l	pro_sup_l	wrist_flex_l	wrist_dev_l
      2.50000000	    -13.19477063	      2.44226689	      4.71061094	      0.08894127	      1.13612631	     -0.29229498	      0.00000000	      0.50000000	      0.00000000	      0.25000000	     52.16561254	     -8.60114093	      1.71118912	     72.96223640	      1.27343125	     -2.38864045	    -12.47899037	      0.00000000	      0.00000000	     76.34444958	     -0.47731798	     -0.37467074	     76.64882589	      1.33777438	     13.43841148	     -6.41588489	      0.00000000	      0.00000000	    -59.86282935	      0.18797566	    -10.68499297	     82.86762546	    -12.03761323	     34.99057634	     54.92179688	     44.77105155	      0.00000000	      0.00000000	     84.74688281	    -32.07585805	     43.07964910	     64.50184601	     47.41652823	      0.00000000	      0.00000000
      2.50500000	    -13.21358658	      2.05675181	      4.56461721	      0.08984762	      1.13620572	     -0.29189963	      0.00000000	      0.50000000	      0.00000000	      0.25000000	     52.64122991	     -8.21812394	      1.58041778	     74.21052086	      1.29521793	     -1.96815770	    -12.54854157	      0.00000000	      0.00000000	     75.49505111	     -0.67535250	     -0.02166281	     75.20069807	      1.31249978	     13.38199235	     -6.34689381	      0.00000000	      0.00000000	    -59.79927406	      0.26180124	    -10.36541045	     82.74431748	    -12.02556334	     35.06147316	     54.93366116	     44.78371470	      0.00000000	      0.00000000	     84.64829101	    -32.20944594	     43.04942856	     64.54364652	     47.42914361	      0.00000000	      0.00000000
      2.51000000	    -13.26598209	      2.05697878	      4.55580672	      0.09075840	      1.13622171	     -0.29183361	      0.00000000	      0.50000000	      0.00000000	      0.25000000	     53.20737964	     -8.32984222	      1.63933088	     75.60130844	      1.31949175	     -0.87884030	    -11.74520967	      0.00000000	      0.00000000	     74.55788116	     -0.54765509	      0.00317263	     73.61452463	      1.28481583	     13.21865824	     -6.50212467	      0.00000000	      0.00000000	    -59.74030483	      0.16673080	    -10.39389507	     82.58724099	    -12.31087558	     35.33361279	     55.15210495	     44.86702797	      0.00000000	      0.00000000	     84.32385243	    -32.32892526	     42.87496467	     65.00652289	     47.54183451	      0.00000000	      0.00000000
      2.51500000	    -13.23602672	      1.61573204	      4.37185615	      0.09164262	      1.13605673	     -0.29149856	      0.00000000	      0.50000000	      0.00000000	      0.25000000	     53.70707846	     -7.90815161	      1.44077826	     76.91292537	      1.34238379	     -0.62226923	    -11.84738838	      0.00000000	      0.00000000	     73.72628405	     -0.83209403	      0.42275102	     72.31344388	      1.26210769	     13.04951725	     -6.36767679	      0.00000000	      0.00000000	    -59.69971482	      0.23777247	    -10.11387625	     82.47412893	    -12.26854216	     35.39209355	     55.17152257	     44.87876271	      0.00000000	      0.00000000	     84.24305055	    -32.45702301	     42.83672541	     65.00643495	     47.54405668	      0.00000000	      0.00000000
      2.52000000	    -13.26221587	      1.34961996	      4.25458033	      0.09253239	      1.13595665	     -0.29110544	      0.00000000	      0.50000000	      0.00000000	      0.25000000	     54.25888963	     -7.63371654	      1.38947901	     78.22766256	      1.36533028	      0.07063431	    -11.84457960	      0.00000000	      0.00000000	     72.86486392	     -0.95626940	      0.76907709	     70.86577670	      1.23684113	     12.72404659	     -6.15510449	      0.00000000	      0.00000000	    -59.56703294	      0.30425293	     -9.82021116	     82.37251649	    -12.34087574	     35.47134696	     55.24789402	     44.90602771	      0.00000000	      0.00000000	     83.94461414	    -32.63815432	     42.78139064	     65.09482259	     47.57324216	      0.00000000	      0.00000000
      2.52500000	    -13.22413073	      1.34416570	      4.24696834	      0.09338062	      1.13587721	     -0.29134881	      0.00000000	      0.50000000	      0.00000000	      0.25000000	     54.84685516	     -7.82119050	      1.40363616	     79.69018284	      1.39085607	      0.88641188	    -10.98667708	      0.00000000	      0.00000000	     71.87999377	     -0.78026710	      0.91537615	     69.38472982	      1.21099199	     12.33572028	     -6.33729396	      0.00000000	      0.00000000	    -59.57373855	      0.28347504	     -9.90110659	     82.19004073	    -12.56461443	     35.68104574	     55.56299764	     45.00168940	      0.00000000	      0.00000000	     83.57342930	    -32.75811999	     42.44623741	     65.56704854	     47.67996947	      0.00000000	      0.00000000
      2.53000000	    -13.21171762	      1.05872030	      4.13284706	      0.09425400	      1.13578202	     -0.29135462	      0.00000000	      0.50000000	      0.00000000	      0.25000000	     55.41723208	     -7.67172211	      1.20858285	     80.99925753	      1.41370374	      1.31614960	    -11.03043260	      0.00000000	      0.00000000	     71.01319820	     -0.88060674	      1.32995203	     68.02184630	      1.18720518	     11.93994367	     -6.12442324	      0.00000000	      0.00000000	    -59.52149796	      0.38316884	     -9.65785664	     82.11032500	    -12.60071975	     35.72425496	     55.63090359	     45.02398767	      0.00000000	      0.00000000	     83.28348744	    -32.89814840	     42.38844782	     65.62893389	     47.70720413	      0.00000000	      0.00000000
      2.53500000	    -13.20535006	      0.96316012	      4.10921501	      0.09522997	      1.13557164	     -0.29162648	      0.00000000	      0.50000000	      0.00000000	      0.25000000	     56.05003312	     -7.79642509	      1.13803782	     82.41563862	      1.43842425	      1.93680253	    -10.47442001	      0.00000000	      0.00000000	     70.11736474	     -0.78002023	      1.66366130	     66.64696123	      1.16320891	     11.47666520	     -6.00382989	      0.00000000	      0.00000000	    -59.43223427	      0.43205529	     -9.62723899	     81.89507543	    -12.74872313	     35.80043754	     55.85517594	     45.08966564	      0.00000000	      0.00000000	     82.86542819	    -32.96541440	     42.11707055	     65.96440487	     47.79882395	      0.00000000	      0.00000000
      2.54000000	    -13.11982723	      0.62936360	      3.92889192	      0.09625866	      1.13554717	     -0.29127052	      0.00000000	      0.50000000	      0.00000000	      0.25000000	     56.57407239	     -7.53905079	      0.92063657	     83.71780621	      1.46115136	      2.21221653	    -10.52553047	      0.00000000	      0.00000000	     69.19164963	     -1.05472636	      2.03317574	     65.35580791	      1.14067403	     11.01636310	     -5.70217607	      0.00000000	      0.00000000	    -59.42224395	      0.50659638	     -9.30837783	     81.77134580	    -12.71948435	     35.83492045	     55.87890223	     45.10202860	      0.00000000	      0.00000000	     82.59124207	    -33.07998544	     42.10647365	     65.97300694	     47.81613839	      0.00000000	      0.00000000
      2.54500000	    -12.97565929	      0.49491207	      3.87008303	      0.09732189	      1.13567637	     -0.29135406	      0.00000000	      0.50000000	      0.00000000	      0.25000000	     57.06498581	     -7.61734600	      0.75595551	     85.07297846	      1.48480358	      2.69635450	    -10.28252381	      0.00000000	      0.00000000	     68.10794413	     -1.09157314	      2.19379711	     63.94386581	      1.11603099	     10.55403677	     -5.63987325	      0.00000000	      0.00000000	    -59.45988331	      0.57982817	     -9.13715723	     81.61875966	    -12.78591972	     35.85765903	     55.91768031	     45.12122420	      0.00000000	      0.00000000	     82.16996116	    -33.11522512	     42.02680327	     66.07402517	     47.85977348	      0.00000000	      0.00000000
      2.55000000	    -12.89314861	      0.37289526	      3.83515354	      0.09817412	      1.13551383	     -0.29129228	      0.00000000	      0.50000000	      0.00000000	      0.25000000	     57.68777731	     -7.69772181	      0.64967044	     86.47508877	      1.50927502	      3.16056758	     -9.87415816	      0.00000000	      0.00000000	     67.12171917	     -1.09249218	      2.49946813	     62.56154337	      1.09190492	      9.95370061	     -5.51046527	      0.00000000	      0.00000000	    -59.43217751	      0.62586643	     -9.03561723	     81.45642058	    -12.82057365	     35.88632882	     55.95682560	     45.14515064	      0.00000000	      0.00000000	     81.82461360	    -33.08546063	     41.86276199	     66.15207832	     47.90403700	      0.00000000	      0.00000000
      2.55500000	    -12.83281588	      0.03605423	      3.70671687	      0.09922582	      1.13537297	     -0.29120265	      0.00000000	      0.50000000	      0.00000000	      0.25000000	     58.27840034	     -7.52908629	      0.40970859	     87.76956102	      1.53186782	      3.48012231	     -9.86239643	      0.00000000	      0.00000000	     66.20594905	     -1.35338634	      2.84610489	     61.27093614	      1.06937957	      9.39481273	     -5.28226574	      0.00000000	      0.00000000	    -59.35612860	      0.74422467	     -8.68995839	     81.34402534	    -12.77723020	     35.92878668	     55.94918414	     45.15291099	      0.00000000	      0.00000000	     81.48009466	    -33.13457679	     41.88397482	     66.10310014	     47.91588564	      0.00000000	      0.00000000
      2.56000000	    -12.76212064	     -0.05242317	      3.65275105	      0.10023000	      1.13514673	     -0.29141549	      0.00000000	      0.50000000	      0.00000000	      0.25000000	     58.94367341	     -7.68350612	      0.33333207	     89.15312046	      1.55601549	      3.97766440	     -9.32738962	      0.00000000	      0.00000000	     65.22140699	     -1.36255449	      3.03364536	     59.92006956	      1.04580250	      8.69050996	     -5.33382255	      0.00000000	      0.00000000	    -59.27106977	      0.78813024	     -8.50164776	     81.17283821	    -12.84021289	     36.00864586	     55.81583656	     45.15611782	      0.00000000	      0.00000000	     80.96214545	    -32.87234259	     41.66517097	     66.01007393	     47.93610178	      0.00000000	      0.00000000
      2.56500000	    -12.66079058	     -0.39806471	      3.48668682	      0.10130135	      1.13488072	     -0.29140862	      0.00000000	      0.50000000	      0.00000000	      0.25000000	     59.54428083	     -7.50903637	      0.11022850	     90.45293823	      1.57870159	      4.25340814	     -9.28427932	      0.00000000	      0.00000000	     64.29034762	     -1.68551608	      3.31203081	     58.70756496	      1.02464030	      8.08647991	     -5.02455584	      0.00000000	      0.00000000	    -59.15838647	      0.94157006	     -8.10886591	     81.06802446	    -12.76016890	     36.07888685	     55.78383621	     45.16329393	      0.00000000	      0.00000000	     80.50862833	    -32.83669383	     41.68733689	     65.91805142	     47.94477885	      0.00000000	      0.00000000
      2.57000000	    -12.52748738	     -0.78971857	      3.30968975	      0.10234857	      1.13432013	     -0.29143188	      0.00000000	      0.50000000	      0.00000000	      0.25000000	     60.18214340	     -7.33050669	     -0.16104939	     91.83242838	      1.60277824	      4.40717247	     -9.28017544	      0.00000000	      0.00000000	     63.42302935	     -2.06442913	      3.56816696	     57.70199322	      1.00708977	      7.72633884	     -4.84924364	      0.00000000	      0.00000000	    -59.13621826	      1.07040079	     -7.74422304	     80.93849737	    -12.65029718	     36.15190963	     55.75588891	     45.16846443	      0.00000000	      0.00000000	     80.27312598	    -32.85055665	     41.70090895	     65.87404571	     47.94691057	      0.00000000	      0.00000000
